<svg xmlns="http://www.w3.org/2000/svg" version="1.1" xmlns:xlink="http://www.w3.org/1999/xlink" xmlns:svgjs="http://svgjs.com/svgjs" width="1440" height="560" preserveAspectRatio="none" viewBox="0 0 1440 560"><g mask="url(&quot;#SvgjsMask1006&quot;)" fill="none"><rect width="1440" height="560" x="0" y="0" fill="url(#SvgjsLinearGradient1007)"></rect><path d="M1440 0L1088.19 0L1440 54.16z" fill="rgba(255, 255, 255, .1)"></path><path d="M1088.19 0L1440 54.16L1440 174.26L1051.8700000000001 0z" fill="rgba(255, 255, 255, .075)"></path><path d="M1051.87 0L1440 174.26L1440 295.8L551.9899999999999 0z" fill="rgba(255, 255, 255, .05)"></path><path d="M551.99 0L1440 295.8L1440 304.46000000000004L431.9 0z" fill="rgba(255, 255, 255, .025)"></path><path d="M0 560L76.69 560L0 340.96000000000004z" fill="rgba(0, 0, 0, .1)"></path><path d="M0 340.96000000000004L76.69 560L705.0699999999999 560L0 295.42z" fill="rgba(0, 0, 0, .075)"></path><path d="M0 295.42L705.0699999999999 560L1010.6299999999999 560L0 281.38z" fill="rgba(0, 0, 0, .05)"></path><path d="M0 281.38L1010.6299999999999 560L1020.6699999999998 560L0 150z" fill="rgba(0, 0, 0, .025)"></path></g><defs><mask id="SvgjsMask1006"><rect width="1440" height="560" fill="#ffffff"></rect></mask><linearGradient x1="50%" y1="100%" x2="50%" y2="0%" gradientUnits="userSpaceOnUse" id="SvgjsLinearGradient1007"><stop stop-color="rgba(12, 109, 126, 1)" offset="0.47"></stop><stop stop-color="rgba(200, 147, 95, 1)" offset="1"></stop></linearGradient></defs></svg>